<svg xmlns="http://www.w3.org/2000/svg" width="36" height="37.232" viewBox="0 0 36 37.232">
  <path id="패스_20" data-name="패스 20" d="M34.425,22.839a13.8,13.8,0,0,0,.116-1.823,11.268,11.268,0,0,0-.135-1.823l3.913-3.064a.955.955,0,0,0,.231-1.183l-3.7-6.438a.939.939,0,0,0-1.137-.427L29.1,9.943a13.6,13.6,0,0,0-3.123-1.823L25.288,3.2a.934.934,0,0,0-.925-.8h-7.4a.915.915,0,0,0-.906.8l-.694,4.925a13.9,13.9,0,0,0-3.123,1.823L7.631,8.082a.918.918,0,0,0-1.137.427L2.812,14.946a.885.885,0,0,0,.231,1.183l3.913,3.064a10.852,10.852,0,0,0-.039,3.646L3.005,25.9a.955.955,0,0,0-.231,1.183l3.7,6.438a.939.939,0,0,0,1.137.427l4.607-1.862a13.6,13.6,0,0,0,3.123,1.823l.694,4.925a.949.949,0,0,0,.925.8h7.4a.9.9,0,0,0,.906-.8l.694-4.925a13.2,13.2,0,0,0,3.123-1.823l4.607,1.862a.918.918,0,0,0,1.137-.427l3.7-6.438A.9.9,0,0,0,38.3,25.9ZM20.662,28A6.981,6.981,0,1,1,27.6,21.016,6.981,6.981,0,0,1,20.662,28Z" transform="translate(-2.662 -2.4)" fill="#2e88db"/>
</svg>
