<svg xmlns="http://www.w3.org/2000/svg" width="30" height="30" viewBox="0 0 30 30">
  <g id="instagram-sketched" transform="translate(0)">
    <path id="패스_39" data-name="패스 39" d="M219.245,213.123A6.123,6.123,0,1,1,213.123,207,6.123,6.123,0,0,1,219.245,213.123Zm0,0" transform="translate(-198.123 -198.123)" fill="#2e88db"/>
    <path id="패스_40" data-name="패스 40" d="M164.748,139.7a6.059,6.059,0,0,0-3.472-3.472,10.123,10.123,0,0,0-3.4-.63c-1.93-.088-2.508-.107-7.394-.107s-5.464.018-7.394.106a10.129,10.129,0,0,0-3.4.63,6.062,6.062,0,0,0-3.473,3.472,10.127,10.127,0,0,0-.63,3.4c-.088,1.929-.107,2.508-.107,7.394s.019,5.464.107,7.394a10.124,10.124,0,0,0,.63,3.4,6.059,6.059,0,0,0,3.472,3.472,10.111,10.111,0,0,0,3.4.63c1.929.088,2.507.106,7.393.106s5.465-.018,7.394-.106a10.111,10.111,0,0,0,3.4-.63,6.059,6.059,0,0,0,3.472-3.472,10.132,10.132,0,0,0,.63-3.4c.088-1.93.106-2.508.106-7.394s-.018-5.464-.106-7.394A10.11,10.11,0,0,0,164.748,139.7Zm-14.263,20.186a9.4,9.4,0,1,1,9.4-9.4A9.4,9.4,0,0,1,150.485,159.884Zm9.767-16.967a2.2,2.2,0,1,1,2.2-2.2A2.2,2.2,0,0,1,160.252,142.917Zm0,0" transform="translate(-135.485 -135.489)" fill="#2e88db"/>
    <path id="패스_41" data-name="패스 41" d="M6.5,0a6.5,6.5,0,1,0,6.5,6.5A6.5,6.5,0,0,0,6.5,0Zm3.708,8.036a2.737,2.737,0,0,1-.173.906,1.908,1.908,0,0,1-1.091,1.091,2.739,2.739,0,0,1-.906.173c-.4.018-.525.023-1.538.023s-1.14,0-1.538-.023a2.739,2.739,0,0,1-.906-.173A1.908,1.908,0,0,1,2.963,8.941a2.737,2.737,0,0,1-.173-.906c-.018-.4-.023-.525-.023-1.538s0-1.14.023-1.538a2.738,2.738,0,0,1,.173-.906A1.909,1.909,0,0,1,4.054,2.962a2.74,2.74,0,0,1,.906-.173c.4-.018.525-.023,1.538-.023s1.14,0,1.538.023a2.74,2.74,0,0,1,.906.173,1.908,1.908,0,0,1,1.091,1.091,2.737,2.737,0,0,1,.174.906c.018.4.022.525.022,1.538S10.224,7.638,10.206,8.036Zm0,0" transform="translate(8.503 8.503)" fill="#2e88db"/>
  </g>
</svg>

