<svg xmlns="http://www.w3.org/2000/svg" width="36" height="38.614" viewBox="0 0 36 38.614">
  <path id="패스_12" data-name="패스 12" d="M33,29.294a5.926,5.926,0,0,0-3.92,1.493L14.82,22.742A6.161,6.161,0,0,0,15,21.385a6.161,6.161,0,0,0-.18-1.357l14.1-7.967A6.077,6.077,0,0,0,33,13.631a5.9,5.9,0,0,0,6-5.815,6,6,0,0,0-12,0,6.161,6.161,0,0,0,.18,1.357l-14.1,7.967A6.077,6.077,0,0,0,9,15.569,5.818,5.818,0,1,0,9,27.2a6.077,6.077,0,0,0,4.08-1.57l14.24,8.064a10.553,10.553,0,0,0-.16,1.26s2.62,5.66,5.84,5.66a5.663,5.663,0,1,0,0-11.321Z" transform="translate(-3 -2)"/>
</svg>
